<?xml version="1.0" standalone="no"?><!-- Generator: Gravit.io --><svg xmlns="http://www.w3.org/2000/svg" xmlns:xlink="http://www.w3.org/1999/xlink" style="isolation:isolate" viewBox="0 0 560 315" width="560" height="315"><defs><clipPath id="_clipPath_OD3id5NNQaYNQpxbgItYao50hn2pSBo3"><rect width="560" height="315"/></clipPath></defs><g clip-path="url(#_clipPath_OD3id5NNQaYNQpxbgItYao50hn2pSBo3)"><g style="isolation:isolate" id="out"><rect x="163" y="69" width="234" height="70" transform="matrix(-1,0,0,-1,560,208)" fill="none" vector-effect="non-scaling-stroke" stroke-width="6" stroke-dasharray="16,17,17" stroke="rgb(255,62,0)" stroke-linejoin="round" stroke-linecap="round" stroke-miterlimit="3"/><rect x="163" y="157" width="234" height="70" transform="matrix(1,0,0,1,0,0)" fill="none" vector-effect="non-scaling-stroke" stroke-width="6" stroke-dasharray="17,16,0,0" stroke="rgb(255,62,0)" stroke-linejoin="round" stroke-linecap="round" stroke-miterlimit="3"/></g><g style="isolation:isolate" id="in"><clipPath id="_clipPath_zKjTY0Zd2zAXOioSJMmEIj2BLzF7xJqa"><rect x="131.158" y="101.35" width="297.842" height="94.929" transform="matrix(1,0,0,1,0,0)" fill="rgb(255,255,255)"/></clipPath><g clip-path="url(#_clipPath_zKjTY0Zd2zAXOioSJMmEIj2BLzF7xJqa)"><rect x="163" y="69" width="234" height="70" transform="matrix(1,0,0,1,0,0)" fill="none" vector-effect="non-scaling-stroke" stroke-width="7" stroke="rgb(255,62,0)" stroke-linejoin="round" stroke-linecap="square" stroke-miterlimit="3"/><rect x="163" y="157.5" width="234" height="70" transform="matrix(1,0,0,1,0,0)" fill="none" vector-effect="non-scaling-stroke" stroke-width="7" stroke="rgb(255,62,0)" stroke-linejoin="round" stroke-linecap="square" stroke-miterlimit="3"/><line x1="134.5" y1="105" x2="425.5" y2="105" vector-effect="non-scaling-stroke" stroke-width="6" stroke="rgb(255,62,0)" stroke-linejoin="miter" stroke-linecap="round" stroke-miterlimit="3"/><line x1="134.5" y1="193.5" x2="425.5" y2="193.5" vector-effect="non-scaling-stroke" stroke-width="6" stroke="rgb(255,62,0)" stroke-linejoin="miter" stroke-linecap="round" stroke-miterlimit="3"/></g></g><g style="isolation:isolate" id="above"><path d=" M 227.307 149.117 C 227.307 127.39 250.918 109.751 280 109.751 C 309.082 109.751 332.693 127.39 332.693 149.117 C 332.693 170.844 309.082 188.483 280 188.483 C 250.918 188.483 227.307 170.844 227.307 149.117 Z " fill="rgb(255,255,255)"/><path d=" M 239.755 148.956 C 242.231 141.841 257.788 123.182 280 123.182 C 302.212 123.182 314.901 141.841 320.245 148.956 C 314.432 156.768 302.212 171.695 280 171.695 C 257.788 171.695 244.106 154.695 239.755 148.956 Z " fill="none" vector-effect="non-scaling-stroke" stroke-width="6" stroke="rgb(255,62,0)" stroke-linejoin="miter" stroke-linecap="square" stroke-miterlimit="3"/><path d=" M 267.706 149.635 C 267.706 142.85 273.215 137.341 280 137.341 C 286.785 137.341 292.294 142.85 292.294 149.635 C 292.294 156.421 286.785 161.93 280 161.93 C 273.215 161.93 267.706 156.421 267.706 149.635 Z " fill="rgb(255,62,0)"/><path d=" M 283.706 140.635 C 283.706 136.61 286.974 133.341 291 133.341 C 295.026 133.341 298.294 136.61 298.294 140.635 C 298.294 144.661 295.026 147.93 291 147.93 C 286.974 147.93 283.706 144.661 283.706 140.635 Z " fill="rgb(255,255,255)"/></g></g></svg>